<?xml version="1.0" encoding="utf-8"?>
<!-- Generator: Adobe Illustrator 26.1.0, SVG Export Plug-In . SVG Version: 6.00 Build 0)  -->
<svg version="1.1" id="Layer_1" xmlns="http://www.w3.org/2000/svg" xmlns:xlink="http://www.w3.org/1999/xlink" x="0px" y="0px"
	 viewBox="0 0 86 29" style="enable-background:new 0 0 86 29;" xml:space="preserve">
<style type="text/css">
	.st0{fill:none;}
	.st1{fill-rule:evenodd;clip-rule:evenodd;fill:#832729;}
</style>
<rect x="-2" y="3.2" class="st0" width="90.1" height="33"/>
<g>
	<path id="path44-2" class="st1" d="M27.5,20.3h1.3v-9.6l0,0c0.6,1.9,3.8,4.3,3.8,4.3c1.5,1.4,2.8,3,3.6,4.9l0,0l0.8,0.4V6.3h-1.3
		v9.8l0,0c-0.7-1.9-3.5-4-3.5-4c-1.7-1.5-3.1-3.5-3.8-5.7l0,0l-0.8-0.3L27.5,20.3L27.5,20.3z M41.5,6.3h1.8v13.9h-1.8V6.3z
		 M40.6,2.2c0-1,0.7-1.8,1.7-1.8c0,0,0.1,0,0.1,0c1,0,1.7,0.8,1.7,1.8c0,1-0.8,1.7-1.7,1.8C41.4,4,40.6,3.2,40.6,2.2
		C40.6,2.2,40.6,2.2,40.6,2.2L40.6,2.2z M55.9,9.5c-0.5,0.1-1-0.1-1.3-0.4c-0.6-0.6-0.9-1.2-1.7-1.7c-0.9-0.5-2-0.5-2.9,0.1
		C49.3,8,49.2,9,49.8,9.6c0.1,0.1,0.1,0.2,0.2,0.2c1.6,1.1,3.2,2,4.9,2.8c3.4,1.8,4,4.9,1.6,6.6c-2,1.3-4.5,1.5-6.7,0.6
		c-1.7-0.6-3-2.1-3.3-3.9c0.9,0,1.6,0.4,2,1.2c0.5,0.8,1.3,1.4,2.2,1.8c1.3,0.5,2.8,0.5,4.1-0.2c1-0.5,1.3-1.8,0.8-2.7
		c-0.1-0.2-0.3-0.5-0.6-0.6c-2.1-2-4.7-2.6-6.2-4c-1.3-1.3-1.7-2.7-0.4-4.2c1.8-1.4,4.2-1.4,6-0.1C55.2,7.7,55.7,8.6,55.9,9.5
		L55.9,9.5z M61.1,19.9H63v-3.8h5.1v4H70V6.3h-1.9V15H63V6.3h-1.9L61.1,19.9z M1.8,7.2C1.5,6.7,1.9,5.4,3.4,5.5H11
		c1,0.1,1.5-0.6,2.8-0.5c-1.2,0.8-2,2-2.2,3.5l0,0l-1.2,10l0,0c-0.5,3.8,1,7.6,3.8,10.2c-1.9,0.3-5.9-2.7-6-8.1
		C8,17.8,8.7,9.2,8.7,9.2c0.1-0.9,0.5-1.7,1.1-2.4H2.7C2.2,6.8,2,6.8,1.8,7.2L1.8,7.2z M79.1,19.4c-1.4-1.1-2.6-2.6-3.3-4.2
		c-0.8-1.7-1-3.6-0.6-5.4c0.5-1.4,1.4-2.7,2.6-3.6c1.3,0.9,2.4,2,3.3,3.3c1.4,2,1.6,4.6,0.5,6.7C81.1,17.6,80.2,18.7,79.1,19.4
		L79.1,19.4z M78.3,4.6c-1.9,1.5-3.4,2.8-4.2,4.7c-1,2.2-1,4.8,0,7.1c1.1,2.2,2.6,4.1,4.5,5.8c1.2,1.4,3.5,4,2.8,6.4
		c0.6,0,1.3-1.4,1.5-1.9c0.4-1.3,0.1-2.6-0.6-3.7c-0.6-0.9-1.3-1.7-2.1-2.5c1.1-1,2.1-2.1,3-3.3c1.5-2,1.6-4.7,0.4-6.9
		C82.1,7.7,78.4,5.4,78.3,4.6z M16.7,16.1h5.4V10l0,0C20.7,12.5,17.5,13.8,16.7,16.1L16.7,16.1z M16,20.3c-0.4-1.1-0.3-2.2,0.2-3.2
		h5.8v3.2h1.5V6.1l0,0c-0.3,0-0.6,0.2-0.8,0.4c-2.2,3.5-3.8,4.4-6.3,6.8c-2,2.1-3.6,4.4-2.8,6.9L16,20.3L16,20.3z"/>
</g>
</svg>
