<?xml version="1.0" encoding="UTF-8"?><svg id="a" xmlns="http://www.w3.org/2000/svg" viewBox="0 0 114.83 74.79"><defs><style>.b{fill:#832729;fill-rule:evenodd;}</style></defs><path class="b" d="M38.79,7.55c-.62-2.91,1.32-5.56,4.15-5.56h7.95c2.12,.09,4.77-1.59,4.77-1.59V13.73c0,13.51-7.42,19.24-10.86,19.77-.62,.27-1.06,.09-.26-.53,4.68-3,7.42-10.15,7.68-16.24V4.55c-.97,.62-2.82,.71-2.82,.71h-6.97c-1.85,0-2.82,.62-3.62,2.29m35.58,0c.62-2.91-1.24-5.56-4.15-5.56h-7.95c-2.03,.09-4.77-1.59-4.77-1.59V13.73c0,13.51,7.42,19.24,10.86,19.77,.62,.27,1.06,.09,.27-.53-4.68-3-7.42-10.15-7.68-16.24V4.55c.97,.62,2.82,.71,2.82,.71h7.06c1.85,0,2.83,.62,3.53,2.29h0ZM20.26,62.99c-.71-1.77-.18-3.71,.26-4.41h8.03v4.41h2.03v-19.51s-.62-.09-1.06,.62c-3,4.77-5.3,6-8.65,9.36-2.83,2.82-4.94,6-3.89,9.53h3.27Zm.88-5.74h7.42v-8.39c-1.85,3.44-6.27,5.3-7.42,8.39Zm84.93-15.8c-2.56,2.03-4.68,3.8-5.83,6.44-1.24,2.65-1.59,6.44,0,9.71,1.77,3.62,3.8,5.56,6.18,7.94,1.68,1.85,4.86,5.56,3.8,8.83,.79,0,1.85-1.94,2.03-2.65,.44-2.29,.18-3.44-.79-5.12-.62-1.15-1.94-2.29-2.91-3.44,1.41-1.15,2.91-2.83,4.15-4.5,1.59-2.21,2.56-5.91,.53-9.53-1.85-3.44-7.06-6.62-7.15-7.68h0Zm1.06,20.39c-2.03-1.68-3.27-3.09-4.5-5.83-1.24-2.47-1.32-5.39-.79-7.42,.62-2.21,2.12-3.8,3.53-4.94,1.59,1.15,3.27,2.56,4.5,4.59,2.03,3.44,2.03,5.91,.71,9.27-.79,1.94-1.68,3.09-3.44,4.33h0ZM.57,45.07c-.35-.71,.18-2.56,2.3-2.38H13.28c1.32,.09,2.12-.88,3.8-.71-2.38,1.94-2.65,2.91-3.09,4.77l-1.68,13.68c-.44,5.56,1.15,10.15,5.3,13.95-2.56,.35-8.12-3.71-8.3-11.12-.18-3.71,.88-15.54,.88-15.54,.26-1.94,1.5-3.35,1.5-3.35H1.8c-.62,.09-.97,.09-1.24,.71H.57Zm81.84,17.39h2.56v-5.21h6.97v5.47h2.65v-18.89h-2.65v11.92h-6.97v-11.92h-2.56v18.63h0Zm-7.15-14.21c-.62,.18-1.24-.09-1.85-.62-.88-.79-1.24-1.59-2.38-2.29-1.24-.62-3-.71-4.06,.09-.97,.71-.97,2.3,.09,3.18,2.03,1.59,4.24,2.47,6.8,3.8,4.68,2.47,5.47,6.8,2.21,9-2.74,1.85-6.18,2.03-9.27,.88-2.38-.97-4.24-2.91-4.5-5.3,1.59,0,2.12,.71,2.74,1.68,.97,1.32,1.59,1.85,3,2.47,2.03,.79,4.33,.53,5.65-.26,1.94-1.24,1.68-3.27,.26-4.59-2.91-2.74-6.53-3.53-8.56-5.56-1.77-1.77-2.38-3.71-.53-5.74,1.59-1.68,5.83-2.21,8.3-.09,1.06,.97,1.85,2.12,2.12,3.35h0Zm-21.1-10.06c0-1.41,1.06-2.47,2.47-2.47,1.24,0,2.38,1.06,2.38,2.47,0,1.32-1.15,2.47-2.38,2.47-1.41,0-2.47-1.15-2.47-2.47Zm1.15,5.65h2.47v19.16h-2.47v-19.16Zm-19.25,19.16h1.77v-13.15c.88,2.56,5.21,5.92,5.21,5.92,0,0,3.35,2.83,4.94,6.71l1.06,.53v-19.16h-1.77v13.42c-.97-2.56-4.77-5.56-4.77-5.56-2.91-2.56-4.86-6.09-5.3-7.77l-1.15-.35v19.42h0Z"/></svg>