<?xml version="1.0" encoding="UTF-8" standalone="no"?>


<svg
   xmlns:dc="http://purl.org/dc/elements/1.1/"
   xmlns:cc="http://creativecommons.org/ns#"
   xmlns:rdf="http://www.w3.org/1999/02/22-rdf-syntax-ns#"
   xmlns:svg="http://www.w3.org/2000/svg"
   xmlns="http://www.w3.org/2000/svg"
   xmlns:sodipodi="http://sodipodi.sourceforge.net/DTD/sodipodi-0.dtd"
   xmlns:inkscape="http://www.inkscape.org/namespaces/inkscape"
   width="398"
   height="259.88"
   id="svg4326"
   version="1.1"
   inkscape:version="0.48.1 "
   sodipodi:docname="New document 3">
  <defs
     id="defs4328" />
  <sodipodi:namedview
     id="base"
     pagecolor="#ffffff"
     bordercolor="#666666"
     borderopacity="1.0"
     inkscape:pageopacity="0.0"
     inkscape:pageshadow="2"
     inkscape:zoom="1.979899"
     inkscape:cx="182.23643"
     inkscape:cy="80.203099"
     inkscape:document-units="px"
     inkscape:current-layer="layer1"
     showgrid="false"
     fit-margin-top="0"
     fit-margin-left="0"
     fit-margin-right="0"
     fit-margin-bottom="0"
     inkscape:window-width="1280"
     inkscape:window-height="720"
     inkscape:window-x="-8"
     inkscape:window-y="-8"
     inkscape:window-maximized="1" />
  <metadata
     id="metadata4331">
    <rdf:RDF>
      <cc:Work
         rdf:about="">
        <dc:format>image/svg+xml</dc:format>
        <dc:type
           rdf:resource="http://purl.org/dc/dcmitype/StillImage" />
        <dc:title></dc:title>
      </cc:Work>
    </rdf:RDF>
  </metadata>
  <g
     inkscape:label="Layer 1"
     inkscape:groupmode="layer"
     id="layer1"
     transform="translate(-442.37277,-79.64066)">
    <path
       inkscape:connector-curvature="0"
       d="m 567.68189,298.48126 6.11925,0 0,-45.56606 0,0 c 3.05749,8.8682 18.04175,20.48859 18.04175,20.48859 0,0 11.62037,9.78682 17.12629,23.24234 l 0,0 3.6692,1.83513 0,-66.36159 -6.11444,0 0,46.48314 0,0 c -3.36494,-8.86823 -16.51513,-19.26624 -16.51513,-19.26624 -10.09219,-8.86822 -16.821,-21.10136 -18.34919,-26.91159 l 0,0 -3.97773,-1.22234 0,67.27862 z m 66.67062,-66.36159 8.56397,0 0,66.36159 -8.56397,0 0,-66.36159 z m -3.9745,-19.57156 c 0,-4.89369 3.66761,-8.56395 8.56074,-8.56395 4.28198,0 8.2597,3.67026 8.2597,8.56395 0,4.58572 -3.97772,8.56238 -8.2597,8.56238 -4.89313,0 -8.56074,-3.97666 -8.56074,-8.56238 z m 73.09041,34.86275 c -2.14097,0.61116 -4.28198,-0.30573 -6.42295,-2.141 -3.05804,-2.75269 -4.27878,-5.50484 -8.25706,-7.95118 -4.28197,-2.14096 -10.3964,-2.44685 -14.06666,0.30533 -3.36388,2.44683 -3.36388,7.95117 0.30531,11.00921 7.03415,5.50485 14.67838,8.56233 23.54979,13.15018 16.2077,8.56234 18.96041,23.54822 7.64373,31.19352 -9.47936,6.42137 -21.40828,7.03257 -32.11054,3.05805 -8.25813,-3.36387 -14.68107,-10.09219 -15.59811,-18.3492 5.50592,0 7.33998,2.44685 9.48099,5.81017 3.36495,4.58786 5.50592,6.42299 10.39909,8.56237 7.03308,2.75375 14.98426,1.83565 19.57313,-0.91652 6.72726,-4.2809 5.81022,-11.31506 0.91705,-15.90287 -10.09378,-9.47941 -22.63118,-12.23157 -29.66533,-19.26572 -6.11605,-6.11605 -8.25702,-12.84431 -1.83352,-19.87901 5.50271,-5.81017 20.18272,-7.64372 28.74509,-0.30532 3.6692,3.36495 6.42295,7.34002 7.33999,11.62199 z m 24.77218,49.23527 8.86928,0 0,-18.04332 24.16099,0 0,18.96198 9.17404,0 0,-65.44512 -9.17404,0 0,41.28412 -24.16099,0 0,-41.28412 -8.86928,0 0,64.52646 z M 444.74288,236.40164 c -1.22394,-2.44684 0.61014,-8.86978 7.95118,-8.25862 l 0,0 36.08562,0 0,0 c 4.58888,0.30745 7.33999,-3.05801 13.15019,-2.44629 -8.25704,6.72825 -9.17246,10.09214 -10.70227,16.51513 l 0,0 -5.81017,47.40175 0,0 c -1.52929,19.26567 3.97341,35.16803 18.34917,48.31822 -8.86822,1.22291 -28.1371,-12.84431 -28.74826,-38.53354 -0.61278,-12.84431 3.05906,-53.82311 3.05906,-53.82311 0.91704,-6.72827 5.19902,-11.62038 5.19902,-11.62038 l 0,0 -34.2542,0 0,0 c -2.13833,0.30575 -3.3623,0.30575 -4.27934,2.44684 z m 369.12713,58.10352 c -7.03145,-5.81021 -11.31343,-10.70335 -15.59541,-20.18276 -4.28198,-8.56289 -4.5873,-18.65503 -2.75379,-25.68918 2.14101,-7.64534 7.34002,-13.15019 12.23478,-17.12472 5.50485,3.97453 11.31505,8.86766 15.5954,15.90236 7.03416,11.92571 7.03416,20.48859 2.44793,32.11056 -2.75375,6.72668 -5.81017,10.70334 -11.92891,14.98374 z m -3.6692,-70.6425 c -8.8698,7.03307 -16.20819,13.15018 -20.18271,22.32373 -4.28198,9.17565 -5.50489,22.32585 0,33.64034 6.11549,12.53903 13.14964,19.26623 21.40669,27.52274 5.81017,6.42299 16.81939,19.26786 13.15019,30.58236 2.75217,0 6.42137,-6.72827 7.03414,-9.17512 1.52981,-7.95118 0.61278,-11.92625 -2.75379,-17.73642 -2.14096,-3.97615 -6.72561,-7.95117 -10.09214,-11.92733 4.89475,-3.97502 10.09214,-9.78681 14.37574,-15.59702 5.50485,-7.64531 8.86659,-20.48859 1.83566,-33.02759 -6.42351,-11.92732 -24.46684,-22.93649 -24.77378,-26.60569 z m -294.20107,54.74015 25.68762,0 0,-29.05255 0,0 c -6.42296,11.92728 -21.71416,18.34919 -25.68762,29.05255 z m -3.05799,19.87845 c -2.44791,-6.1155 -0.61278,-12.84431 0.91704,-15.29065 l 0,0 27.82857,0 0,15.29065 7.03575,0 0,-67.58553 0,0 c 0,0 -2.14259,-0.30575 -3.67081,2.14097 -10.39747,16.51356 -18.34865,20.79553 -29.96959,32.41592 -9.78789,9.7863 -17.12791,20.79548 -13.4587,33.02864 l 0,0 11.31774,0 z M 700.41041,106.4285 c 2.14097,-10.091081 -4.28198,-19.266237 -14.37416,-19.266237 l 0,0 -27.52432,0 0,0 c -7.03257,0.305749 -16.51192,-5.504334 -16.51192,-5.504334 l 0,0 0,46.178871 0,0 c 0,46.78897 25.68866,66.66743 37.61329,68.5015 2.14096,0.91866 3.67078,0.30703 0.91968,-1.83407 -16.21088,-10.39747 -25.69024,-35.16965 -26.60729,-56.27102 l 0,0 0,-42.201112 0,0 c 3.36495,2.139387 9.78525,2.445221 9.78525,2.445221 l 0,0 24.46631,0 0,0 c 6.42295,0 9.78789,2.141011 12.23316,7.951181 z m -123.24753,0 c -2.14101,-10.091081 4.58944,-19.266237 14.37413,-19.266237 l 0,0 27.52593,0 0,0 c 7.3384,0.305749 16.51356,-5.504334 16.51356,-5.504334 l 0,0 0,46.178871 0,0 c 0,46.78897 -25.6903,66.66743 -37.61651,68.5015 -2.14101,0.91866 -3.66919,0.30703 -0.91652,-1.83407 16.20768,-10.39747 25.68867,-35.16965 26.60413,-56.27102 l 0,0 0,-42.201112 0,0 c -3.36175,2.139387 -9.78524,2.445221 -9.78524,2.445221 l 0,0 -24.16048,0 0,0 c -6.42137,0 -9.78526,2.141011 -12.539,7.951181"
       style="fill:#0a0a0d;fill-opacity:1;fill-rule:evenodd;stroke:none"
       id="path44" />
  </g>
</svg>
