<svg xmlns="http://www.w3.org/2000/svg" width="270" height="272" viewBox="0 0 270 272">
  <g id="Group_14785" data-name="Group 14785" transform="translate(-101 -566)">
    <rect id="Rectangle_10150" data-name="Rectangle 10150" width="270" height="272" transform="translate(101 566)" fill="#f6f0f0"/>
    <path id="path44" d="M557.219,94.037c1.035-5.043-2.071-9.629-6.952-9.629H536.956c-3.4.153-7.986-2.751-7.986-2.751h0v23.078h0c0,23.383,12.424,33.318,18.191,34.234,1.035.459,1.775.153.445-.917-7.84-5.2-12.425-17.576-12.868-28.122h0V88.841h0a11.8,11.8,0,0,0,4.733,1.222H551.3c3.106,0,4.734,1.07,5.917,3.974Zm-59.608,0c-1.035-5.043,2.22-9.629,6.952-9.629h13.313c3.549.153,7.986-2.751,7.986-2.751h0v23.078h0c0,23.383-12.425,33.318-18.193,34.234-1.035.459-1.775.153-.443-.917,7.839-5.2,12.424-17.576,12.867-28.122h0V88.841h0a11.792,11.792,0,0,1-4.732,1.222H503.676c-3.106,0-4.733,1.07-6.064,3.974" transform="translate(-291.419 591.343)" fill="#832729" fill-rule="evenodd" opacity="0.4"/>
  </g>
</svg>
