<svg width="12" height="13" viewBox="0 0 12 13" fill="none" xmlns="http://www.w3.org/2000/svg">
<path d="M2.95156 6.1457C3.03536 6.2298 3.11366 6.3189 3.18596 6.4123C3.38276 6.6666 3.53546 6.9533 3.63666 7.2604L4.08446 8.6371C4.12186 8.7432 4.19136 8.8351 4.28326 8.9001C4.37526 8.9651 4.48506 9 4.59766 9C4.71026 9 4.82006 8.9651 4.91206 8.9001C4.99406 8.8421 5.05816 8.7627 5.09766 8.6709C5.10246 8.6598 5.10686 8.6486 5.11086 8.6371L5.55866 7.2604C5.69796 6.8418 5.93296 6.4615 6.24506 6.1496C6.55716 5.8377 6.93786 5.6029 7.35666 5.4637L8.73446 5.0163C8.84066 4.9788 8.93266 4.9094 8.99766 4.8176C9.06276 4.7257 9.09766 4.616 9.09766 4.5034C9.09766 4.3909 9.06276 4.2812 8.99766 4.1893C8.93266 4.0975 8.84066 4.028 8.73446 3.9906L8.70696 3.9837L7.32916 3.5363C6.91026 3.3971 6.52966 3.1623 6.21746 2.8504C5.90536 2.5385 5.67036 2.1582 5.53116 1.7396L5.08336 0.3629C5.04586 0.2568 4.97636 0.1649 4.88446 0.0999003C4.79256 0.0349003 4.68276 0 4.57006 0C4.45746 0 4.34766 0.0349003 4.25576 0.0999003C4.16386 0.1649 4.09436 0.2568 4.05686 0.3629L3.60906 1.7396L3.59766 1.7737C3.45996 2.1759 3.23336 2.5422 2.93466 2.8454C2.62756 3.1571 2.25236 3.3935 1.83866 3.5363L0.460856 3.9837C0.354656 4.0212 0.262657 4.0906 0.197657 4.1824C0.132557 4.2743 0.0976562 4.384 0.0976562 4.4966C0.0976562 4.6091 0.132557 4.7188 0.197657 4.8107C0.262657 4.9025 0.354656 4.972 0.460856 5.0094L1.83866 5.4568C2.25826 5.5967 2.63936 5.8326 2.95156 6.1457ZM10.8806 10.2132L10.1152 9.9646C9.88246 9.8873 9.67096 9.7568 9.49756 9.5836C9.32416 9.4103 9.19356 9.199 9.11626 8.9665L8.86746 8.2016C8.84666 8.1427 8.80806 8.0916 8.75696 8.0555C8.70596 8.0194 8.64496 8 8.58236 8C8.51976 8 8.45876 8.0194 8.40766 8.0555C8.35666 8.0916 8.31806 8.1427 8.29726 8.2016L8.04846 8.9665C7.97266 9.1974 7.84436 9.4076 7.67376 9.5808C7.50316 9.7539 7.29476 9.8853 7.06486 9.9646L6.29946 10.2132C6.24046 10.234 6.18936 10.2725 6.15316 10.3236C6.11706 10.3746 6.09766 10.4356 6.09766 10.4981C6.09766 10.5606 6.11706 10.6216 6.15316 10.6726C6.18936 10.7236 6.24046 10.7622 6.29946 10.783L7.06486 11.0316C7.29796 11.1093 7.50966 11.2403 7.68316 11.4143C7.85656 11.5882 7.98696 11.8003 8.06376 12.0335L8.31256 12.7984C8.33336 12.8573 8.37196 12.9084 8.42306 12.9445C8.47406 12.9806 8.53506 13 8.59766 13C8.66026 13 8.72126 12.9806 8.77226 12.9445C8.82336 12.9084 8.86196 12.8573 8.88276 12.7984L9.13155 12.0335C9.20895 11.801 9.33946 11.5897 9.51286 11.4164C9.68626 11.2432 9.89776 11.1127 10.1305 11.0354L10.8959 10.7868C10.9549 10.766 11.006 10.7275 11.0422 10.6764C11.0783 10.6254 11.0977 10.5644 11.0977 10.5019C11.0977 10.4394 11.0783 10.3784 11.0422 10.3274C11.006 10.2764 10.9549 10.2378 10.8959 10.217L10.8806 10.2132Z" fill="white"/>
</svg>
